<?xml version="1.0" encoding="UTF-8" standalone="no"?>
<!DOCTYPE svg PUBLIC "-//W3C//DTD SVG 1.1//EN"
 "http://www.w3.org/Graphics/SVG/1.1/DTD/svg11.dtd">
<!-- Generated by graphviz version 2.40.1 (20161225.0304)
 -->
<!-- Title: PyPPL Pages: 1 -->
<svg width="113pt" height="332pt"
 viewBox="0.00 0.00 113.00 332.00" xmlns="http://www.w3.org/2000/svg" xmlns:xlink="http://www.w3.org/1999/xlink">
<g id="graph0" class="graph" transform="scale(1 1) rotate(0) translate(4 328)">
<title>PyPPL</title>
<polygon fill="#ffffff" stroke="transparent" points="-4,4 -4,-328 109,-328 109,4 -4,4"/>
<!-- pBamToFastq -->
<g id="node1" class="node">
<title>pBamToFastq</title>
<g id="a_node1"><a xlink:title="Convert bam files to fastq files.">
<polygon fill="#ffffff" stroke="#259229" points="105,-324 0,-324 0,-288 105,-288 105,-324"/>
<text text-anchor="middle" x="52.5" y="-302.3" font-family="Times,serif" font-size="14.00" fill="#000000">pBamToFastq</text>
</a>
</g>
</g>
<!-- pAlignment -->
<g id="node5" class="node">
<title>pAlignment</title>
<g id="a_node5"><a xlink:title="Align reads to reference genome.">
<path fill="#ffffff" stroke="#000000" d="M83.5,-252C83.5,-252 21.5,-252 21.5,-252 15.5,-252 9.5,-246 9.5,-240 9.5,-240 9.5,-228 9.5,-228 9.5,-222 15.5,-216 21.5,-216 21.5,-216 83.5,-216 83.5,-216 89.5,-216 95.5,-222 95.5,-228 95.5,-228 95.5,-240 95.5,-240 95.5,-246 89.5,-252 83.5,-252"/>
<text text-anchor="middle" x="52.5" y="-230.3" font-family="Times,serif" font-size="14.00" fill="#000000">pAlignment</text>
</a>
</g>
</g>
<!-- pBamToFastq&#45;&gt;pAlignment -->
<g id="edge4" class="edge">
<title>pBamToFastq&#45;&gt;pAlignment</title>
<path fill="none" stroke="#000000" d="M52.5,-287.8314C52.5,-280.131 52.5,-270.9743 52.5,-262.4166"/>
<polygon fill="#000000" stroke="#000000" points="56.0001,-262.4132 52.5,-252.4133 49.0001,-262.4133 56.0001,-262.4132"/>
</g>
<!-- pMarkDups -->
<g id="node2" class="node">
<title>pMarkDups</title>
<g id="a_node2"><a xlink:title="Mark duplicates.">
<polygon fill="#ffffff" stroke="#d63125" points="97,-36 8,-36 8,0 97,0 97,-36"/>
<text text-anchor="middle" x="52.5" y="-14.3" font-family="Times,serif" font-size="14.00" fill="#c71be4">pMarkDups</text>
</a>
</g>
</g>
<!-- pBamMerge -->
<g id="node3" class="node">
<title>pBamMerge</title>
<g id="a_node3"><a xlink:title="Merge bam files.">
<path fill="#ffffff" stroke="#000000" d="M88,-108C88,-108 17,-108 17,-108 11,-108 5,-102 5,-96 5,-96 5,-84 5,-84 5,-78 11,-72 17,-72 17,-72 88,-72 88,-72 94,-72 100,-78 100,-84 100,-84 100,-96 100,-96 100,-102 94,-108 88,-108"/>
<text text-anchor="middle" x="52.5" y="-86.3" font-family="Times,serif" font-size="14.00" fill="#000000">pBamMerge</text>
</a>
</g>
</g>
<!-- pBamMerge&#45;&gt;pMarkDups -->
<g id="edge1" class="edge">
<title>pBamMerge&#45;&gt;pMarkDups</title>
<path fill="none" stroke="#000000" d="M52.5,-71.8314C52.5,-64.131 52.5,-54.9743 52.5,-46.4166"/>
<polygon fill="#000000" stroke="#000000" points="56.0001,-46.4132 52.5,-36.4133 49.0001,-46.4133 56.0001,-46.4132"/>
</g>
<!-- pBamSort -->
<g id="node4" class="node">
<title>pBamSort</title>
<g id="a_node4"><a xlink:title="Sort bam files.">
<path fill="#ffffff" stroke="#000000" d="M81,-180C81,-180 24,-180 24,-180 18,-180 12,-174 12,-168 12,-168 12,-156 12,-156 12,-150 18,-144 24,-144 24,-144 81,-144 81,-144 87,-144 93,-150 93,-156 93,-156 93,-168 93,-168 93,-174 87,-180 81,-180"/>
<text text-anchor="middle" x="52.5" y="-158.3" font-family="Times,serif" font-size="14.00" fill="#000000">pBamSort</text>
</a>
</g>
</g>
<!-- pBamSort&#45;&gt;pBamMerge -->
<g id="edge2" class="edge">
<title>pBamSort&#45;&gt;pBamMerge</title>
<path fill="none" stroke="#000000" d="M52.5,-143.8314C52.5,-136.131 52.5,-126.9743 52.5,-118.4166"/>
<polygon fill="#000000" stroke="#000000" points="56.0001,-118.4132 52.5,-108.4133 49.0001,-118.4133 56.0001,-118.4132"/>
</g>
<!-- pAlignment&#45;&gt;pBamSort -->
<g id="edge3" class="edge">
<title>pAlignment&#45;&gt;pBamSort</title>
<path fill="none" stroke="#000000" d="M52.5,-215.8314C52.5,-208.131 52.5,-198.9743 52.5,-190.4166"/>
<polygon fill="#000000" stroke="#000000" points="56.0001,-190.4132 52.5,-180.4133 49.0001,-190.4133 56.0001,-190.4132"/>
</g>
</g>
</svg>
