<?xml version="1.0" encoding="UTF-8" standalone="no"?>
<!DOCTYPE svg PUBLIC "-//W3C//DTD SVG 1.1//EN"
 "http://www.w3.org/Graphics/SVG/1.1/DTD/svg11.dtd">
<!-- Generated by graphviz version 2.42.3 (20191010.1750)
 -->
<!-- Title: PyPPL Pages: 1 -->
<svg width="102pt" height="332pt"
 viewBox="0.00 0.00 102.00 332.00" xmlns="http://www.w3.org/2000/svg" xmlns:xlink="http://www.w3.org/1999/xlink">
<g id="graph0" class="graph" transform="scale(1 1) rotate(0) translate(4 328)">
<title>PyPPL</title>
<polygon fill="white" stroke="transparent" points="-4,4 -4,-328 98,-328 98,4 -4,4"/>
<!-- pBamToFastq -->
<g id="node1" class="node">
<title>pBamToFastq</title>
<g id="a_node1"><a xlink:title="Convert bam files to fastq files.">
<polygon fill="#ffffff" stroke="#259229" points="94,-324 0,-324 0,-288 94,-288 94,-324"/>
<text text-anchor="middle" x="47" y="-302.3" font-family="Times,serif" font-size="14.00" fill="#000000">pBamToFastq</text>
</a>
</g>
</g>
<!-- pAlignment -->
<g id="node3" class="node">
<title>pAlignment</title>
<g id="a_node3"><a xlink:title="Align reads to reference genome.">
<path fill="#ffffff" stroke="#000000" d="M76,-252C76,-252 18,-252 18,-252 12,-252 6,-246 6,-240 6,-240 6,-228 6,-228 6,-222 12,-216 18,-216 18,-216 76,-216 76,-216 82,-216 88,-222 88,-228 88,-228 88,-240 88,-240 88,-246 82,-252 76,-252"/>
<text text-anchor="middle" x="47" y="-230.3" font-family="Times,serif" font-size="14.00" fill="#000000">pAlignment</text>
</a>
</g>
</g>
<!-- pBamToFastq&#45;&gt;pAlignment -->
<g id="edge1" class="edge">
<title>pBamToFastq&#45;&gt;pAlignment</title>
<path fill="none" stroke="black" d="M47,-287.7C47,-279.98 47,-270.71 47,-262.11"/>
<polygon fill="black" stroke="black" points="50.5,-262.1 47,-252.1 43.5,-262.1 50.5,-262.1"/>
</g>
<!-- pMarkDups -->
<g id="node2" class="node">
<title>pMarkDups</title>
<g id="a_node2"><a xlink:title="Mark duplicates.">
<polygon fill="#ffffff" stroke="#d63125" points="88,-36 6,-36 6,0 88,0 88,-36"/>
<text text-anchor="middle" x="47" y="-14.3" font-family="Times,serif" font-size="14.00" fill="#000000">pMarkDups</text>
</a>
</g>
</g>
<!-- pBamSort -->
<g id="node4" class="node">
<title>pBamSort</title>
<g id="a_node4"><a xlink:title="Sort bam files.">
<path fill="#ffffff" stroke="#000000" d="M71,-180C71,-180 23,-180 23,-180 17,-180 11,-174 11,-168 11,-168 11,-156 11,-156 11,-150 17,-144 23,-144 23,-144 71,-144 71,-144 77,-144 83,-150 83,-156 83,-156 83,-168 83,-168 83,-174 77,-180 71,-180"/>
<text text-anchor="middle" x="47" y="-158.3" font-family="Times,serif" font-size="14.00" fill="#000000">pBamSort</text>
</a>
</g>
</g>
<!-- pAlignment&#45;&gt;pBamSort -->
<g id="edge2" class="edge">
<title>pAlignment&#45;&gt;pBamSort</title>
<path fill="none" stroke="black" d="M47,-215.7C47,-207.98 47,-198.71 47,-190.11"/>
<polygon fill="black" stroke="black" points="50.5,-190.1 47,-180.1 43.5,-190.1 50.5,-190.1"/>
</g>
<!-- pBamMerge -->
<g id="node5" class="node">
<title>pBamMerge</title>
<g id="a_node5"><a xlink:title="Merge bam files.">
<path fill="#ffffff" stroke="#000000" d="M78,-108C78,-108 16,-108 16,-108 10,-108 4,-102 4,-96 4,-96 4,-84 4,-84 4,-78 10,-72 16,-72 16,-72 78,-72 78,-72 84,-72 90,-78 90,-84 90,-84 90,-96 90,-96 90,-102 84,-108 78,-108"/>
<text text-anchor="middle" x="47" y="-86.3" font-family="Times,serif" font-size="14.00" fill="#000000">pBamMerge</text>
</a>
</g>
</g>
<!-- pBamSort&#45;&gt;pBamMerge -->
<g id="edge3" class="edge">
<title>pBamSort&#45;&gt;pBamMerge</title>
<path fill="none" stroke="black" d="M47,-143.7C47,-135.98 47,-126.71 47,-118.11"/>
<polygon fill="black" stroke="black" points="50.5,-118.1 47,-108.1 43.5,-118.1 50.5,-118.1"/>
</g>
<!-- pBamMerge&#45;&gt;pMarkDups -->
<g id="edge4" class="edge">
<title>pBamMerge&#45;&gt;pMarkDups</title>
<path fill="none" stroke="black" d="M47,-71.7C47,-63.98 47,-54.71 47,-46.11"/>
<polygon fill="black" stroke="black" points="50.5,-46.1 47,-36.1 43.5,-46.1 50.5,-46.1"/>
</g>
</g>
</svg>
