<?xml version="1.0" encoding="UTF-8" standalone="no"?>
<!DOCTYPE svg PUBLIC "-//W3C//DTD SVG 1.1//EN"
 "http://www.w3.org/Graphics/SVG/1.1/DTD/svg11.dtd">
<!-- Generated by graphviz version 2.40.1 (20161225.0304)
 -->
<!-- Title: PyPPL Pages: 1 -->
<svg width="107pt" height="332pt"
 viewBox="0.00 0.00 107.00 332.00" xmlns="http://www.w3.org/2000/svg" xmlns:xlink="http://www.w3.org/1999/xlink">
<g id="graph0" class="graph" transform="scale(1 1) rotate(0) translate(4 328)">
<title>PyPPL</title>
<polygon fill="#ffffff" stroke="transparent" points="-4,4 -4,-328 103,-328 103,4 -4,4"/>
<!-- pMarkDups -->
<g id="node1" class="node">
<title>pMarkDups</title>
<g id="a_node1"><a xlink:title="Mark duplicates.">
<polygon fill="#ffffff" stroke="#d63125" points="91.5,-36 7.5,-36 7.5,0 91.5,0 91.5,-36"/>
<text text-anchor="middle" x="49.5" y="-14.3" font-family="Times,serif" font-size="14.00" fill="#c71be4">pMarkDups</text>
</a>
</g>
</g>
<!-- pBamToFastq -->
<g id="node2" class="node">
<title>pBamToFastq</title>
<g id="a_node2"><a xlink:title="Convert bam files to fastq files.">
<polygon fill="#ffffff" stroke="#259229" points="99,-324 0,-324 0,-288 99,-288 99,-324"/>
<text text-anchor="middle" x="49.5" y="-302.3" font-family="Times,serif" font-size="14.00" fill="#000000">pBamToFastq</text>
</a>
</g>
</g>
<!-- pAlignment -->
<g id="node5" class="node">
<title>pAlignment</title>
<g id="a_node5"><a xlink:title="Align reads to reference genome.">
<path fill="#ffffff" stroke="#000000" d="M83.5,-252C83.5,-252 15.5,-252 15.5,-252 9.5,-252 3.5,-246 3.5,-240 3.5,-240 3.5,-228 3.5,-228 3.5,-222 9.5,-216 15.5,-216 15.5,-216 83.5,-216 83.5,-216 89.5,-216 95.5,-222 95.5,-228 95.5,-228 95.5,-240 95.5,-240 95.5,-246 89.5,-252 83.5,-252"/>
<text text-anchor="middle" x="49.5" y="-230.3" font-family="Times,serif" font-size="14.00" fill="#000000">pAlignment</text>
</a>
</g>
</g>
<!-- pBamToFastq&#45;&gt;pAlignment -->
<g id="edge4" class="edge">
<title>pBamToFastq&#45;&gt;pAlignment</title>
<path fill="none" stroke="#000000" d="M49.5,-287.8314C49.5,-280.131 49.5,-270.9743 49.5,-262.4166"/>
<polygon fill="#000000" stroke="#000000" points="53.0001,-262.4132 49.5,-252.4133 46.0001,-262.4133 53.0001,-262.4132"/>
</g>
<!-- pBamMerge -->
<g id="node3" class="node">
<title>pBamMerge</title>
<g id="a_node3"><a xlink:title="Merge bam files.">
<path fill="#ffffff" stroke="#000000" d="M79.5,-108C79.5,-108 19.5,-108 19.5,-108 13.5,-108 7.5,-102 7.5,-96 7.5,-96 7.5,-84 7.5,-84 7.5,-78 13.5,-72 19.5,-72 19.5,-72 79.5,-72 79.5,-72 85.5,-72 91.5,-78 91.5,-84 91.5,-84 91.5,-96 91.5,-96 91.5,-102 85.5,-108 79.5,-108"/>
<text text-anchor="middle" x="49.5" y="-86.3" font-family="Times,serif" font-size="14.00" fill="#000000">pBamMerge</text>
</a>
</g>
</g>
<!-- pBamMerge&#45;&gt;pMarkDups -->
<g id="edge1" class="edge">
<title>pBamMerge&#45;&gt;pMarkDups</title>
<path fill="none" stroke="#000000" d="M49.5,-71.8314C49.5,-64.131 49.5,-54.9743 49.5,-46.4166"/>
<polygon fill="#000000" stroke="#000000" points="53.0001,-46.4132 49.5,-36.4133 46.0001,-46.4133 53.0001,-46.4132"/>
</g>
<!-- pBamSort -->
<g id="node4" class="node">
<title>pBamSort</title>
<g id="a_node4"><a xlink:title="Sort bam files.">
<path fill="#ffffff" stroke="#000000" d="M76,-180C76,-180 23,-180 23,-180 17,-180 11,-174 11,-168 11,-168 11,-156 11,-156 11,-150 17,-144 23,-144 23,-144 76,-144 76,-144 82,-144 88,-150 88,-156 88,-156 88,-168 88,-168 88,-174 82,-180 76,-180"/>
<text text-anchor="middle" x="49.5" y="-158.3" font-family="Times,serif" font-size="14.00" fill="#000000">pBamSort</text>
</a>
</g>
</g>
<!-- pBamSort&#45;&gt;pBamMerge -->
<g id="edge2" class="edge">
<title>pBamSort&#45;&gt;pBamMerge</title>
<path fill="none" stroke="#000000" d="M49.5,-143.8314C49.5,-136.131 49.5,-126.9743 49.5,-118.4166"/>
<polygon fill="#000000" stroke="#000000" points="53.0001,-118.4132 49.5,-108.4133 46.0001,-118.4133 53.0001,-118.4132"/>
</g>
<!-- pAlignment&#45;&gt;pBamSort -->
<g id="edge3" class="edge">
<title>pAlignment&#45;&gt;pBamSort</title>
<path fill="none" stroke="#000000" d="M49.5,-215.8314C49.5,-208.131 49.5,-198.9743 49.5,-190.4166"/>
<polygon fill="#000000" stroke="#000000" points="53.0001,-190.4132 49.5,-180.4133 46.0001,-190.4133 53.0001,-190.4132"/>
</g>
</g>
</svg>
