<?xml version="1.0" encoding="UTF-8" standalone="no"?>
<!DOCTYPE svg PUBLIC "-//W3C//DTD SVG 1.1//EN"
 "http://www.w3.org/Graphics/SVG/1.1/DTD/svg11.dtd">
<!-- Generated by graphviz version 2.42.3 (20191010.1750)
 -->
<!-- Title: PyPPL Pages: 1 -->
<svg width="123pt" height="332pt"
 viewBox="0.00 0.00 123.00 332.00" xmlns="http://www.w3.org/2000/svg" xmlns:xlink="http://www.w3.org/1999/xlink">
<g id="graph0" class="graph" transform="scale(1 1) rotate(0) translate(4 328)">
<title>PyPPL</title>
<polygon fill="white" stroke="transparent" points="-4,4 -4,-328 119,-328 119,4 -4,4"/>
<!-- pBamToFastq -->
<g id="node1" class="node">
<title>pBamToFastq</title>
<g id="a_node1"><a xlink:title="Convert bam files to fastq files.">
<polygon fill="#ffffff" stroke="#259229" points="115,-324 0,-324 0,-288 115,-288 115,-324"/>
<text text-anchor="middle" x="57.5" y="-302.3" font-family="Times,serif" font-size="14.00" fill="#000000">pBamToFastq</text>
</a>
</g>
</g>
<!-- pAlignment -->
<g id="node3" class="node">
<title>pAlignment</title>
<g id="a_node3"><a xlink:title="Align reads to reference genome.">
<path fill="#ffffff" stroke="#000000" d="M95.5,-252C95.5,-252 19.5,-252 19.5,-252 13.5,-252 7.5,-246 7.5,-240 7.5,-240 7.5,-228 7.5,-228 7.5,-222 13.5,-216 19.5,-216 19.5,-216 95.5,-216 95.5,-216 101.5,-216 107.5,-222 107.5,-228 107.5,-228 107.5,-240 107.5,-240 107.5,-246 101.5,-252 95.5,-252"/>
<text text-anchor="middle" x="57.5" y="-230.3" font-family="Times,serif" font-size="14.00" fill="#000000">pAlignment</text>
</a>
</g>
</g>
<!-- pBamToFastq&#45;&gt;pAlignment -->
<g id="edge1" class="edge">
<title>pBamToFastq&#45;&gt;pAlignment</title>
<path fill="none" stroke="black" d="M57.5,-287.7C57.5,-279.98 57.5,-270.71 57.5,-262.11"/>
<polygon fill="black" stroke="black" points="61,-262.1 57.5,-252.1 54,-262.1 61,-262.1"/>
</g>
<!-- pMarkDups -->
<g id="node2" class="node">
<title>pMarkDups</title>
<g id="a_node2"><a xlink:title="Mark duplicates.">
<polygon fill="#ffffff" stroke="#d63125" points="108,-36 7,-36 7,0 108,0 108,-36"/>
<text text-anchor="middle" x="57.5" y="-14.3" font-family="Times,serif" font-size="14.00" fill="#000000">pMarkDups</text>
</a>
</g>
</g>
<!-- pBamSort -->
<g id="node4" class="node">
<title>pBamSort</title>
<g id="a_node4"><a xlink:title="Sort bam files.">
<path fill="#ffffff" stroke="#000000" d="M90,-180C90,-180 25,-180 25,-180 19,-180 13,-174 13,-168 13,-168 13,-156 13,-156 13,-150 19,-144 25,-144 25,-144 90,-144 90,-144 96,-144 102,-150 102,-156 102,-156 102,-168 102,-168 102,-174 96,-180 90,-180"/>
<text text-anchor="middle" x="57.5" y="-158.3" font-family="Times,serif" font-size="14.00" fill="#000000">pBamSort</text>
</a>
</g>
</g>
<!-- pAlignment&#45;&gt;pBamSort -->
<g id="edge2" class="edge">
<title>pAlignment&#45;&gt;pBamSort</title>
<path fill="none" stroke="black" d="M57.5,-215.7C57.5,-207.98 57.5,-198.71 57.5,-190.11"/>
<polygon fill="black" stroke="black" points="61,-190.1 57.5,-180.1 54,-190.1 61,-190.1"/>
</g>
<!-- pBamMerge -->
<g id="node5" class="node">
<title>pBamMerge</title>
<g id="a_node5"><a xlink:title="Merge bam files.">
<path fill="#ffffff" stroke="#000000" d="M97.5,-108C97.5,-108 17.5,-108 17.5,-108 11.5,-108 5.5,-102 5.5,-96 5.5,-96 5.5,-84 5.5,-84 5.5,-78 11.5,-72 17.5,-72 17.5,-72 97.5,-72 97.5,-72 103.5,-72 109.5,-78 109.5,-84 109.5,-84 109.5,-96 109.5,-96 109.5,-102 103.5,-108 97.5,-108"/>
<text text-anchor="middle" x="57.5" y="-86.3" font-family="Times,serif" font-size="14.00" fill="#000000">pBamMerge</text>
</a>
</g>
</g>
<!-- pBamSort&#45;&gt;pBamMerge -->
<g id="edge3" class="edge">
<title>pBamSort&#45;&gt;pBamMerge</title>
<path fill="none" stroke="black" d="M57.5,-143.7C57.5,-135.98 57.5,-126.71 57.5,-118.11"/>
<polygon fill="black" stroke="black" points="61,-118.1 57.5,-108.1 54,-118.1 61,-118.1"/>
</g>
<!-- pBamMerge&#45;&gt;pMarkDups -->
<g id="edge4" class="edge">
<title>pBamMerge&#45;&gt;pMarkDups</title>
<path fill="none" stroke="black" d="M57.5,-71.7C57.5,-63.98 57.5,-54.71 57.5,-46.11"/>
<polygon fill="black" stroke="black" points="61,-46.1 57.5,-36.1 54,-46.1 61,-46.1"/>
</g>
</g>
</svg>
