<?xml version="1.0" encoding="UTF-8" standalone="no"?>
<!DOCTYPE svg PUBLIC "-//W3C//DTD SVG 1.1//EN"
 "http://www.w3.org/Graphics/SVG/1.1/DTD/svg11.dtd">
<!-- Generated by graphviz version 2.40.1 (20161225.0304)
 -->
<!-- Title: PyPPL Pages: 1 -->
<svg width="102pt" height="332pt"
 viewBox="0.00 0.00 102.00 332.00" xmlns="http://www.w3.org/2000/svg" xmlns:xlink="http://www.w3.org/1999/xlink">
<g id="graph0" class="graph" transform="scale(1 1) rotate(0) translate(4 328)">
<title>PyPPL</title>
<polygon fill="#ffffff" stroke="transparent" points="-4,4 -4,-328 98,-328 98,4 -4,4"/>
<!-- pBamToFastq -->
<g id="node1" class="node">
<title>pBamToFastq</title>
<g id="a_node1"><a xlink:title="Convert bam files to fastq files.">
<polygon fill="#ffffff" stroke="#259229" points="94,-324 0,-324 0,-288 94,-288 94,-324"/>
<text text-anchor="middle" x="47" y="-302.3" font-family="Times,serif" font-size="14.00" fill="#000000">pBamToFastq</text>
</a>
</g>
</g>
<!-- pAlignment -->
<g id="node5" class="node">
<title>pAlignment</title>
<g id="a_node5"><a xlink:title="Align reads to reference genome.">
<path fill="#ffffff" stroke="#000000" d="M76,-252C76,-252 18,-252 18,-252 12,-252 6,-246 6,-240 6,-240 6,-228 6,-228 6,-222 12,-216 18,-216 18,-216 76,-216 76,-216 82,-216 88,-222 88,-228 88,-228 88,-240 88,-240 88,-246 82,-252 76,-252"/>
<text text-anchor="middle" x="47" y="-230.3" font-family="Times,serif" font-size="14.00" fill="#000000">pAlignment</text>
</a>
</g>
</g>
<!-- pBamToFastq&#45;&gt;pAlignment -->
<g id="edge4" class="edge">
<title>pBamToFastq&#45;&gt;pAlignment</title>
<path fill="none" stroke="#000000" d="M47,-287.8314C47,-280.131 47,-270.9743 47,-262.4166"/>
<polygon fill="#000000" stroke="#000000" points="50.5001,-262.4132 47,-252.4133 43.5001,-262.4133 50.5001,-262.4132"/>
</g>
<!-- pMarkDups -->
<g id="node2" class="node">
<title>pMarkDups</title>
<g id="a_node2"><a xlink:title="Mark duplicates.">
<polygon fill="#ffffff" stroke="#d63125" points="88,-36 6,-36 6,0 88,0 88,-36"/>
<text text-anchor="middle" x="47" y="-14.3" font-family="Times,serif" font-size="14.00" fill="#c71be4">pMarkDups</text>
</a>
</g>
</g>
<!-- pBamMerge -->
<g id="node3" class="node">
<title>pBamMerge</title>
<g id="a_node3"><a xlink:title="Merge bam files.">
<path fill="#ffffff" stroke="#000000" d="M78,-108C78,-108 16,-108 16,-108 10,-108 4,-102 4,-96 4,-96 4,-84 4,-84 4,-78 10,-72 16,-72 16,-72 78,-72 78,-72 84,-72 90,-78 90,-84 90,-84 90,-96 90,-96 90,-102 84,-108 78,-108"/>
<text text-anchor="middle" x="47" y="-86.3" font-family="Times,serif" font-size="14.00" fill="#000000">pBamMerge</text>
</a>
</g>
</g>
<!-- pBamMerge&#45;&gt;pMarkDups -->
<g id="edge1" class="edge">
<title>pBamMerge&#45;&gt;pMarkDups</title>
<path fill="none" stroke="#000000" d="M47,-71.8314C47,-64.131 47,-54.9743 47,-46.4166"/>
<polygon fill="#000000" stroke="#000000" points="50.5001,-46.4132 47,-36.4133 43.5001,-46.4133 50.5001,-46.4132"/>
</g>
<!-- pBamSort -->
<g id="node4" class="node">
<title>pBamSort</title>
<g id="a_node4"><a xlink:title="Sort bam files.">
<path fill="#ffffff" stroke="#000000" d="M71,-180C71,-180 23,-180 23,-180 17,-180 11,-174 11,-168 11,-168 11,-156 11,-156 11,-150 17,-144 23,-144 23,-144 71,-144 71,-144 77,-144 83,-150 83,-156 83,-156 83,-168 83,-168 83,-174 77,-180 71,-180"/>
<text text-anchor="middle" x="47" y="-158.3" font-family="Times,serif" font-size="14.00" fill="#000000">pBamSort</text>
</a>
</g>
</g>
<!-- pBamSort&#45;&gt;pBamMerge -->
<g id="edge2" class="edge">
<title>pBamSort&#45;&gt;pBamMerge</title>
<path fill="none" stroke="#000000" d="M47,-143.8314C47,-136.131 47,-126.9743 47,-118.4166"/>
<polygon fill="#000000" stroke="#000000" points="50.5001,-118.4132 47,-108.4133 43.5001,-118.4133 50.5001,-118.4132"/>
</g>
<!-- pAlignment&#45;&gt;pBamSort -->
<g id="edge3" class="edge">
<title>pAlignment&#45;&gt;pBamSort</title>
<path fill="none" stroke="#000000" d="M47,-215.8314C47,-208.131 47,-198.9743 47,-190.4166"/>
<polygon fill="#000000" stroke="#000000" points="50.5001,-190.4132 47,-180.4133 43.5001,-190.4133 50.5001,-190.4132"/>
</g>
</g>
</svg>
